<mxfile host="app.diagrams.net" modified="2023-04-25T06:15:24.528Z" agent="Mozilla/5.0 (Windows NT 10.0; Win64; x64) AppleWebKit/537.36 (KHTML, like Gecko) Chrome/112.0.0.0 Safari/537.36" etag="-UahSAOlQ9gOhCnroxSZ" version="21.2.1" type="device">
  <diagram name="Page-1" id="qh8iGyEfWIzaZ1vd3yxh">
    <mxGraphModel dx="1827" dy="456" grid="1" gridSize="10" guides="1" tooltips="1" connect="1" arrows="1" fold="1" page="1" pageScale="1" pageWidth="850" pageHeight="1100" math="0" shadow="0">
      <root>
        <mxCell id="0" />
        <mxCell id="1" parent="0" />
        <mxCell id="DeqCb0h_Cj6cchRE969t-1" value="Hostel" style="whiteSpace=wrap;html=1;align=center;" vertex="1" parent="1">
          <mxGeometry x="90" y="110" width="100" height="40" as="geometry" />
        </mxCell>
        <mxCell id="DeqCb0h_Cj6cchRE969t-68" value="" style="edgeStyle=orthogonalEdgeStyle;rounded=0;orthogonalLoop=1;jettySize=auto;html=1;" edge="1" parent="1" source="DeqCb0h_Cj6cchRE969t-9" target="DeqCb0h_Cj6cchRE969t-1">
          <mxGeometry relative="1" as="geometry" />
        </mxCell>
        <mxCell id="DeqCb0h_Cj6cchRE969t-9" value="Has" style="shape=rhombus;perimeter=rhombusPerimeter;whiteSpace=wrap;html=1;align=center;" vertex="1" parent="1">
          <mxGeometry x="80" y="210" width="120" height="60" as="geometry" />
        </mxCell>
        <mxCell id="DeqCb0h_Cj6cchRE969t-67" value="" style="edgeStyle=orthogonalEdgeStyle;rounded=0;orthogonalLoop=1;jettySize=auto;html=1;" edge="1" parent="1" source="DeqCb0h_Cj6cchRE969t-12" target="DeqCb0h_Cj6cchRE969t-34">
          <mxGeometry relative="1" as="geometry" />
        </mxCell>
        <mxCell id="DeqCb0h_Cj6cchRE969t-12" value="Contains" style="shape=rhombus;perimeter=rhombusPerimeter;whiteSpace=wrap;html=1;align=center;" vertex="1" parent="1">
          <mxGeometry x="600" y="200" width="120" height="60" as="geometry" />
        </mxCell>
        <mxCell id="DeqCb0h_Cj6cchRE969t-66" style="edgeStyle=orthogonalEdgeStyle;rounded=0;orthogonalLoop=1;jettySize=auto;html=1;entryX=1;entryY=0.5;entryDx=0;entryDy=0;" edge="1" parent="1" source="DeqCb0h_Cj6cchRE969t-13" target="DeqCb0h_Cj6cchRE969t-1">
          <mxGeometry relative="1" as="geometry" />
        </mxCell>
        <mxCell id="DeqCb0h_Cj6cchRE969t-13" value="Has" style="shape=rhombus;perimeter=rhombusPerimeter;whiteSpace=wrap;html=1;align=center;" vertex="1" parent="1">
          <mxGeometry x="350" y="105" width="110" height="50" as="geometry" />
        </mxCell>
        <mxCell id="DeqCb0h_Cj6cchRE969t-29" value="Address" style="ellipse;whiteSpace=wrap;html=1;align=center;" vertex="1" parent="1">
          <mxGeometry x="10" y="75" width="70" height="30" as="geometry" />
        </mxCell>
        <mxCell id="DeqCb0h_Cj6cchRE969t-30" value="Name" style="ellipse;whiteSpace=wrap;html=1;align=center;fontStyle=4;" vertex="1" parent="1">
          <mxGeometry x="70" y="40" width="70" height="30" as="geometry" />
        </mxCell>
        <mxCell id="DeqCb0h_Cj6cchRE969t-31" value="No. of Students" style="ellipse;whiteSpace=wrap;html=1;align=center;" vertex="1" parent="1">
          <mxGeometry x="150" y="40" width="90" height="30" as="geometry" />
        </mxCell>
        <mxCell id="DeqCb0h_Cj6cchRE969t-32" value="No. of&amp;nbsp; Rooms" style="ellipse;whiteSpace=wrap;html=1;align=center;" vertex="1" parent="1">
          <mxGeometry x="200" y="70" width="100" height="40" as="geometry" />
        </mxCell>
        <mxCell id="DeqCb0h_Cj6cchRE969t-34" value="Rooms" style="whiteSpace=wrap;html=1;align=center;" vertex="1" parent="1">
          <mxGeometry x="610" y="110" width="100" height="40" as="geometry" />
        </mxCell>
        <mxCell id="DeqCb0h_Cj6cchRE969t-36" value="RoomId" style="ellipse;whiteSpace=wrap;html=1;align=center;fontStyle=4;" vertex="1" parent="1">
          <mxGeometry x="570" y="40" width="70" height="30" as="geometry" />
        </mxCell>
        <mxCell id="DeqCb0h_Cj6cchRE969t-37" value="Capacity" style="ellipse;whiteSpace=wrap;html=1;align=center;" vertex="1" parent="1">
          <mxGeometry x="670" y="40" width="90" height="30" as="geometry" />
        </mxCell>
        <mxCell id="DeqCb0h_Cj6cchRE969t-42" value="" style="endArrow=none;html=1;rounded=0;entryX=0;entryY=0;entryDx=0;entryDy=0;" edge="1" parent="1" target="DeqCb0h_Cj6cchRE969t-1">
          <mxGeometry relative="1" as="geometry">
            <mxPoint x="60" y="104" as="sourcePoint" />
            <mxPoint x="220" y="104" as="targetPoint" />
          </mxGeometry>
        </mxCell>
        <mxCell id="DeqCb0h_Cj6cchRE969t-43" value="" style="endArrow=none;html=1;rounded=0;exitX=0.629;exitY=0.967;exitDx=0;exitDy=0;exitPerimeter=0;" edge="1" parent="1" source="DeqCb0h_Cj6cchRE969t-30" target="DeqCb0h_Cj6cchRE969t-1">
          <mxGeometry relative="1" as="geometry">
            <mxPoint x="130" y="75" as="sourcePoint" />
            <mxPoint x="290" y="75" as="targetPoint" />
          </mxGeometry>
        </mxCell>
        <mxCell id="DeqCb0h_Cj6cchRE969t-44" value="" style="endArrow=none;html=1;rounded=0;exitX=0;exitY=1;exitDx=0;exitDy=0;" edge="1" parent="1" source="DeqCb0h_Cj6cchRE969t-31" target="DeqCb0h_Cj6cchRE969t-1">
          <mxGeometry relative="1" as="geometry">
            <mxPoint x="124" y="79" as="sourcePoint" />
            <mxPoint x="141" y="120" as="targetPoint" />
            <Array as="points" />
          </mxGeometry>
        </mxCell>
        <mxCell id="DeqCb0h_Cj6cchRE969t-45" value="" style="endArrow=none;html=1;rounded=0;exitX=0;exitY=0.5;exitDx=0;exitDy=0;entryX=1;entryY=0;entryDx=0;entryDy=0;" edge="1" parent="1" source="DeqCb0h_Cj6cchRE969t-32" target="DeqCb0h_Cj6cchRE969t-1">
          <mxGeometry relative="1" as="geometry">
            <mxPoint x="173" y="76" as="sourcePoint" />
            <mxPoint x="157" y="120" as="targetPoint" />
            <Array as="points" />
          </mxGeometry>
        </mxCell>
        <mxCell id="DeqCb0h_Cj6cchRE969t-46" value="" style="endArrow=none;html=1;rounded=0;entryX=0.25;entryY=0;entryDx=0;entryDy=0;exitX=0.5;exitY=1;exitDx=0;exitDy=0;" edge="1" parent="1" source="DeqCb0h_Cj6cchRE969t-36" target="DeqCb0h_Cj6cchRE969t-34">
          <mxGeometry relative="1" as="geometry">
            <mxPoint x="370" y="150" as="sourcePoint" />
            <mxPoint x="530" y="150" as="targetPoint" />
          </mxGeometry>
        </mxCell>
        <mxCell id="DeqCb0h_Cj6cchRE969t-47" value="" style="endArrow=none;html=1;rounded=0;entryX=0.5;entryY=1;entryDx=0;entryDy=0;exitX=0.75;exitY=0;exitDx=0;exitDy=0;" edge="1" parent="1" source="DeqCb0h_Cj6cchRE969t-34" target="DeqCb0h_Cj6cchRE969t-37">
          <mxGeometry relative="1" as="geometry">
            <mxPoint x="370" y="150" as="sourcePoint" />
            <mxPoint x="530" y="150" as="targetPoint" />
          </mxGeometry>
        </mxCell>
        <mxCell id="DeqCb0h_Cj6cchRE969t-48" value="Inventory" style="whiteSpace=wrap;html=1;align=center;" vertex="1" parent="1">
          <mxGeometry x="610" y="390" width="100" height="40" as="geometry" />
        </mxCell>
        <mxCell id="DeqCb0h_Cj6cchRE969t-49" value="InvID" style="ellipse;whiteSpace=wrap;html=1;align=center;fontStyle=4;" vertex="1" parent="1">
          <mxGeometry x="570" y="320" width="70" height="30" as="geometry" />
        </mxCell>
        <mxCell id="DeqCb0h_Cj6cchRE969t-50" value="Name" style="ellipse;whiteSpace=wrap;html=1;align=center;" vertex="1" parent="1">
          <mxGeometry x="670" y="320" width="90" height="30" as="geometry" />
        </mxCell>
        <mxCell id="DeqCb0h_Cj6cchRE969t-51" value="" style="endArrow=none;html=1;rounded=0;entryX=0.25;entryY=0;entryDx=0;entryDy=0;exitX=0.5;exitY=1;exitDx=0;exitDy=0;" edge="1" parent="1" source="DeqCb0h_Cj6cchRE969t-49" target="DeqCb0h_Cj6cchRE969t-48">
          <mxGeometry relative="1" as="geometry">
            <mxPoint x="370" y="430" as="sourcePoint" />
            <mxPoint x="530" y="430" as="targetPoint" />
          </mxGeometry>
        </mxCell>
        <mxCell id="DeqCb0h_Cj6cchRE969t-52" value="" style="endArrow=none;html=1;rounded=0;entryX=0.5;entryY=1;entryDx=0;entryDy=0;exitX=0.75;exitY=0;exitDx=0;exitDy=0;" edge="1" parent="1" source="DeqCb0h_Cj6cchRE969t-48" target="DeqCb0h_Cj6cchRE969t-50">
          <mxGeometry relative="1" as="geometry">
            <mxPoint x="370" y="430" as="sourcePoint" />
            <mxPoint x="530" y="430" as="targetPoint" />
          </mxGeometry>
        </mxCell>
        <mxCell id="DeqCb0h_Cj6cchRE969t-57" value="" style="endArrow=none;html=1;rounded=0;entryX=0;entryY=0.5;entryDx=0;entryDy=0;" edge="1" parent="1" source="DeqCb0h_Cj6cchRE969t-13" target="DeqCb0h_Cj6cchRE969t-34">
          <mxGeometry relative="1" as="geometry">
            <mxPoint x="370" y="260" as="sourcePoint" />
            <mxPoint x="530" y="260" as="targetPoint" />
          </mxGeometry>
        </mxCell>
        <mxCell id="DeqCb0h_Cj6cchRE969t-58" value="1" style="resizable=0;html=1;whiteSpace=wrap;align=right;verticalAlign=bottom;" connectable="0" vertex="1" parent="DeqCb0h_Cj6cchRE969t-57">
          <mxGeometry x="1" relative="1" as="geometry" />
        </mxCell>
        <mxCell id="DeqCb0h_Cj6cchRE969t-69" value="Employee" style="whiteSpace=wrap;html=1;align=center;" vertex="1" parent="1">
          <mxGeometry x="90" y="330" width="100" height="40" as="geometry" />
        </mxCell>
        <mxCell id="DeqCb0h_Cj6cchRE969t-70" value="Name" style="ellipse;whiteSpace=wrap;html=1;align=center;" vertex="1" parent="1">
          <mxGeometry x="10" y="390" width="70" height="30" as="geometry" />
        </mxCell>
        <mxCell id="DeqCb0h_Cj6cchRE969t-71" value="EId" style="ellipse;whiteSpace=wrap;html=1;align=center;fontStyle=4;" vertex="1" parent="1">
          <mxGeometry y="350" width="70" height="30" as="geometry" />
        </mxCell>
        <mxCell id="DeqCb0h_Cj6cchRE969t-72" value="Address" style="ellipse;whiteSpace=wrap;html=1;align=center;" vertex="1" parent="1">
          <mxGeometry x="40" y="430" width="90" height="30" as="geometry" />
        </mxCell>
        <mxCell id="DeqCb0h_Cj6cchRE969t-73" value="Salary" style="ellipse;whiteSpace=wrap;html=1;align=center;" vertex="1" parent="1">
          <mxGeometry x="230" y="380" width="70" height="30" as="geometry" />
        </mxCell>
        <mxCell id="DeqCb0h_Cj6cchRE969t-75" value="" style="endArrow=none;html=1;rounded=0;exitX=1;exitY=0.5;exitDx=0;exitDy=0;entryX=0;entryY=0.5;entryDx=0;entryDy=0;" edge="1" parent="1" source="DeqCb0h_Cj6cchRE969t-71" target="DeqCb0h_Cj6cchRE969t-69">
          <mxGeometry relative="1" as="geometry">
            <mxPoint x="140" y="390" as="sourcePoint" />
            <mxPoint x="300" y="390" as="targetPoint" />
          </mxGeometry>
        </mxCell>
        <mxCell id="DeqCb0h_Cj6cchRE969t-76" value="" style="endArrow=none;html=1;rounded=0;exitX=0.5;exitY=0;exitDx=0;exitDy=0;entryX=0.25;entryY=1;entryDx=0;entryDy=0;" edge="1" parent="1" source="DeqCb0h_Cj6cchRE969t-72" target="DeqCb0h_Cj6cchRE969t-69">
          <mxGeometry relative="1" as="geometry">
            <mxPoint x="134" y="394" as="sourcePoint" />
            <mxPoint x="151" y="435" as="targetPoint" />
            <Array as="points" />
          </mxGeometry>
        </mxCell>
        <mxCell id="DeqCb0h_Cj6cchRE969t-77" value="" style="endArrow=none;html=1;rounded=0;entryX=1;entryY=0.5;entryDx=0;entryDy=0;" edge="1" parent="1" source="DeqCb0h_Cj6cchRE969t-73" target="DeqCb0h_Cj6cchRE969t-69">
          <mxGeometry relative="1" as="geometry">
            <mxPoint x="183" y="391" as="sourcePoint" />
            <mxPoint x="167" y="435" as="targetPoint" />
            <Array as="points" />
          </mxGeometry>
        </mxCell>
        <mxCell id="DeqCb0h_Cj6cchRE969t-79" style="edgeStyle=orthogonalEdgeStyle;rounded=0;orthogonalLoop=1;jettySize=auto;html=1;exitX=0.5;exitY=1;exitDx=0;exitDy=0;" edge="1" parent="1" source="DeqCb0h_Cj6cchRE969t-72" target="DeqCb0h_Cj6cchRE969t-72">
          <mxGeometry relative="1" as="geometry" />
        </mxCell>
        <mxCell id="DeqCb0h_Cj6cchRE969t-80" value="" style="endArrow=none;html=1;rounded=0;entryX=1;entryY=0;entryDx=0;entryDy=0;exitX=0;exitY=1;exitDx=0;exitDy=0;" edge="1" parent="1" source="DeqCb0h_Cj6cchRE969t-69" target="DeqCb0h_Cj6cchRE969t-70">
          <mxGeometry relative="1" as="geometry">
            <mxPoint x="70" y="419" as="sourcePoint" />
            <mxPoint x="100" y="425" as="targetPoint" />
          </mxGeometry>
        </mxCell>
        <mxCell id="DeqCb0h_Cj6cchRE969t-82" value="" style="endArrow=none;html=1;rounded=0;exitX=0.5;exitY=0;exitDx=0;exitDy=0;entryX=0.5;entryY=1;entryDx=0;entryDy=0;" edge="1" parent="1" source="DeqCb0h_Cj6cchRE969t-69" target="DeqCb0h_Cj6cchRE969t-9">
          <mxGeometry relative="1" as="geometry">
            <mxPoint x="360" y="420" as="sourcePoint" />
            <mxPoint x="520" y="420" as="targetPoint" />
          </mxGeometry>
        </mxCell>
        <mxCell id="DeqCb0h_Cj6cchRE969t-83" value="" style="endArrow=none;html=1;rounded=0;exitX=0.5;exitY=0;exitDx=0;exitDy=0;" edge="1" parent="1" source="DeqCb0h_Cj6cchRE969t-48" target="DeqCb0h_Cj6cchRE969t-12">
          <mxGeometry relative="1" as="geometry">
            <mxPoint x="150" y="435" as="sourcePoint" />
            <mxPoint x="150" y="280" as="targetPoint" />
          </mxGeometry>
        </mxCell>
        <mxCell id="DeqCb0h_Cj6cchRE969t-84" value="Role" style="ellipse;whiteSpace=wrap;html=1;align=center;" vertex="1" parent="1">
          <mxGeometry x="180" y="410" width="70" height="30" as="geometry" />
        </mxCell>
        <mxCell id="DeqCb0h_Cj6cchRE969t-85" value="" style="endArrow=none;html=1;rounded=0;exitX=0.75;exitY=1;exitDx=0;exitDy=0;entryX=0.5;entryY=0;entryDx=0;entryDy=0;" edge="1" parent="1" source="DeqCb0h_Cj6cchRE969t-69" target="DeqCb0h_Cj6cchRE969t-84">
          <mxGeometry relative="1" as="geometry">
            <mxPoint x="290" y="420" as="sourcePoint" />
            <mxPoint x="450" y="420" as="targetPoint" />
          </mxGeometry>
        </mxCell>
        <mxCell id="DeqCb0h_Cj6cchRE969t-89" style="edgeStyle=orthogonalEdgeStyle;rounded=0;orthogonalLoop=1;jettySize=auto;html=1;entryX=0.5;entryY=1;entryDx=0;entryDy=0;" edge="1" parent="1" source="DeqCb0h_Cj6cchRE969t-86" target="DeqCb0h_Cj6cchRE969t-69">
          <mxGeometry relative="1" as="geometry" />
        </mxCell>
        <mxCell id="DeqCb0h_Cj6cchRE969t-86" value="Management Staff" style="whiteSpace=wrap;html=1;align=center;" vertex="1" parent="1">
          <mxGeometry x="90" y="520" width="100" height="40" as="geometry" />
        </mxCell>
        <mxCell id="DeqCb0h_Cj6cchRE969t-90" value="LoginId" style="ellipse;whiteSpace=wrap;html=1;align=center;" vertex="1" parent="1">
          <mxGeometry x="60" y="590" width="70" height="30" as="geometry" />
        </mxCell>
        <mxCell id="DeqCb0h_Cj6cchRE969t-92" value="Password" style="ellipse;whiteSpace=wrap;html=1;align=center;" vertex="1" parent="1">
          <mxGeometry x="150" y="590" width="90" height="30" as="geometry" />
        </mxCell>
        <mxCell id="DeqCb0h_Cj6cchRE969t-93" value="" style="endArrow=none;html=1;rounded=0;exitX=1;exitY=0;exitDx=0;exitDy=0;entryX=0;entryY=0.5;entryDx=0;entryDy=0;" edge="1" parent="1" source="DeqCb0h_Cj6cchRE969t-97" target="DeqCb0h_Cj6cchRE969t-86">
          <mxGeometry relative="1" as="geometry">
            <mxPoint x="90" y="575" as="sourcePoint" />
            <mxPoint x="110" y="560" as="targetPoint" />
          </mxGeometry>
        </mxCell>
        <mxCell id="DeqCb0h_Cj6cchRE969t-94" value="" style="endArrow=none;html=1;rounded=0;exitX=0.5;exitY=0;exitDx=0;exitDy=0;entryX=0.75;entryY=1;entryDx=0;entryDy=0;" edge="1" parent="1" source="DeqCb0h_Cj6cchRE969t-92" target="DeqCb0h_Cj6cchRE969t-86">
          <mxGeometry relative="1" as="geometry">
            <mxPoint x="154" y="604" as="sourcePoint" />
            <mxPoint x="135" y="580" as="targetPoint" />
            <Array as="points" />
          </mxGeometry>
        </mxCell>
        <mxCell id="DeqCb0h_Cj6cchRE969t-95" style="edgeStyle=orthogonalEdgeStyle;rounded=0;orthogonalLoop=1;jettySize=auto;html=1;exitX=0.5;exitY=1;exitDx=0;exitDy=0;" edge="1" parent="1" source="DeqCb0h_Cj6cchRE969t-92" target="DeqCb0h_Cj6cchRE969t-92">
          <mxGeometry relative="1" as="geometry" />
        </mxCell>
        <mxCell id="DeqCb0h_Cj6cchRE969t-96" value="" style="endArrow=none;html=1;rounded=0;entryX=0.5;entryY=0;entryDx=0;entryDy=0;exitX=0.25;exitY=1;exitDx=0;exitDy=0;" edge="1" parent="1" target="DeqCb0h_Cj6cchRE969t-90" source="DeqCb0h_Cj6cchRE969t-86">
          <mxGeometry relative="1" as="geometry">
            <mxPoint x="110" y="580" as="sourcePoint" />
            <mxPoint x="120" y="635" as="targetPoint" />
          </mxGeometry>
        </mxCell>
        <mxCell id="DeqCb0h_Cj6cchRE969t-97" value="&lt;span style=&quot;border-bottom: 1px dotted&quot;&gt;EId&lt;/span&gt;" style="ellipse;whiteSpace=wrap;html=1;align=center;" vertex="1" parent="1">
          <mxGeometry x="-30" y="570" width="90" height="30" as="geometry" />
        </mxCell>
        <mxCell id="DeqCb0h_Cj6cchRE969t-117" style="edgeStyle=orthogonalEdgeStyle;rounded=0;orthogonalLoop=1;jettySize=auto;html=1;exitX=0.5;exitY=0;exitDx=0;exitDy=0;entryX=1;entryY=1;entryDx=0;entryDy=0;" edge="1" parent="1" source="DeqCb0h_Cj6cchRE969t-98" target="DeqCb0h_Cj6cchRE969t-1">
          <mxGeometry relative="1" as="geometry" />
        </mxCell>
        <mxCell id="DeqCb0h_Cj6cchRE969t-98" value="Applied By" style="shape=rhombus;perimeter=rhombusPerimeter;whiteSpace=wrap;html=1;align=center;" vertex="1" parent="1">
          <mxGeometry x="280" y="270" width="120" height="60" as="geometry" />
        </mxCell>
        <mxCell id="DeqCb0h_Cj6cchRE969t-118" style="edgeStyle=orthogonalEdgeStyle;rounded=0;orthogonalLoop=1;jettySize=auto;html=1;exitX=0.5;exitY=0;exitDx=0;exitDy=0;entryX=0;entryY=1;entryDx=0;entryDy=0;" edge="1" parent="1" source="DeqCb0h_Cj6cchRE969t-99" target="DeqCb0h_Cj6cchRE969t-34">
          <mxGeometry relative="1" as="geometry" />
        </mxCell>
        <mxCell id="DeqCb0h_Cj6cchRE969t-99" value="Occupied by" style="shape=rhombus;perimeter=rhombusPerimeter;whiteSpace=wrap;html=1;align=center;" vertex="1" parent="1">
          <mxGeometry x="425" y="270" width="120" height="60" as="geometry" />
        </mxCell>
        <mxCell id="DeqCb0h_Cj6cchRE969t-100" value="Student" style="whiteSpace=wrap;html=1;align=center;" vertex="1" parent="1">
          <mxGeometry x="370" y="430" width="100" height="40" as="geometry" />
        </mxCell>
        <mxCell id="DeqCb0h_Cj6cchRE969t-101" value="FullName" style="ellipse;whiteSpace=wrap;html=1;align=center;" vertex="1" parent="1">
          <mxGeometry x="250" y="470" width="70" height="30" as="geometry" />
        </mxCell>
        <mxCell id="DeqCb0h_Cj6cchRE969t-102" value="RollNo" style="ellipse;whiteSpace=wrap;html=1;align=center;fontStyle=4;" vertex="1" parent="1">
          <mxGeometry x="270" y="430" width="70" height="30" as="geometry" />
        </mxCell>
        <mxCell id="DeqCb0h_Cj6cchRE969t-103" value="GuardianName" style="ellipse;whiteSpace=wrap;html=1;align=center;" vertex="1" parent="1">
          <mxGeometry x="220" y="510" width="90" height="30" as="geometry" />
        </mxCell>
        <mxCell id="DeqCb0h_Cj6cchRE969t-104" value="Distance" style="ellipse;whiteSpace=wrap;html=1;align=center;" vertex="1" parent="1">
          <mxGeometry x="540" y="490" width="70" height="30" as="geometry" />
        </mxCell>
        <mxCell id="DeqCb0h_Cj6cchRE969t-105" value="" style="endArrow=none;html=1;rounded=0;exitX=1;exitY=0.5;exitDx=0;exitDy=0;entryX=0;entryY=0.5;entryDx=0;entryDy=0;" edge="1" parent="1" source="DeqCb0h_Cj6cchRE969t-102" target="DeqCb0h_Cj6cchRE969t-100">
          <mxGeometry relative="1" as="geometry">
            <mxPoint x="415" y="500" as="sourcePoint" />
            <mxPoint x="575" y="500" as="targetPoint" />
          </mxGeometry>
        </mxCell>
        <mxCell id="DeqCb0h_Cj6cchRE969t-106" value="" style="endArrow=none;html=1;rounded=0;exitX=0.5;exitY=0;exitDx=0;exitDy=0;entryX=0.25;entryY=1;entryDx=0;entryDy=0;" edge="1" parent="1" source="DeqCb0h_Cj6cchRE969t-103" target="DeqCb0h_Cj6cchRE969t-100">
          <mxGeometry relative="1" as="geometry">
            <mxPoint x="409" y="504" as="sourcePoint" />
            <mxPoint x="426" y="545" as="targetPoint" />
            <Array as="points" />
          </mxGeometry>
        </mxCell>
        <mxCell id="DeqCb0h_Cj6cchRE969t-107" value="" style="endArrow=none;html=1;rounded=0;entryX=1;entryY=0.5;entryDx=0;entryDy=0;" edge="1" parent="1" source="DeqCb0h_Cj6cchRE969t-104" target="DeqCb0h_Cj6cchRE969t-100">
          <mxGeometry relative="1" as="geometry">
            <mxPoint x="458" y="501" as="sourcePoint" />
            <mxPoint x="442" y="545" as="targetPoint" />
            <Array as="points" />
          </mxGeometry>
        </mxCell>
        <mxCell id="DeqCb0h_Cj6cchRE969t-108" style="edgeStyle=orthogonalEdgeStyle;rounded=0;orthogonalLoop=1;jettySize=auto;html=1;exitX=0.5;exitY=1;exitDx=0;exitDy=0;" edge="1" parent="1" source="DeqCb0h_Cj6cchRE969t-103" target="DeqCb0h_Cj6cchRE969t-103">
          <mxGeometry relative="1" as="geometry" />
        </mxCell>
        <mxCell id="DeqCb0h_Cj6cchRE969t-109" value="" style="endArrow=none;html=1;rounded=0;entryX=1;entryY=0;entryDx=0;entryDy=0;exitX=0;exitY=1;exitDx=0;exitDy=0;" edge="1" parent="1" source="DeqCb0h_Cj6cchRE969t-100" target="DeqCb0h_Cj6cchRE969t-101">
          <mxGeometry relative="1" as="geometry">
            <mxPoint x="345" y="529" as="sourcePoint" />
            <mxPoint x="375" y="535" as="targetPoint" />
          </mxGeometry>
        </mxCell>
        <mxCell id="DeqCb0h_Cj6cchRE969t-110" value="Department" style="ellipse;whiteSpace=wrap;html=1;align=center;" vertex="1" parent="1">
          <mxGeometry x="505" y="635" width="75" height="30" as="geometry" />
        </mxCell>
        <mxCell id="DeqCb0h_Cj6cchRE969t-111" value="" style="endArrow=none;html=1;rounded=0;exitX=0.75;exitY=1;exitDx=0;exitDy=0;entryX=0.5;entryY=0;entryDx=0;entryDy=0;" edge="1" parent="1" source="DeqCb0h_Cj6cchRE969t-100" target="DeqCb0h_Cj6cchRE969t-110">
          <mxGeometry relative="1" as="geometry">
            <mxPoint x="565" y="530" as="sourcePoint" />
            <mxPoint x="725" y="530" as="targetPoint" />
          </mxGeometry>
        </mxCell>
        <mxCell id="DeqCb0h_Cj6cchRE969t-114" value="" style="endArrow=none;html=1;rounded=0;entryX=0.25;entryY=0;entryDx=0;entryDy=0;exitX=0.5;exitY=1;exitDx=0;exitDy=0;" edge="1" parent="1" source="DeqCb0h_Cj6cchRE969t-98" target="DeqCb0h_Cj6cchRE969t-100">
          <mxGeometry relative="1" as="geometry">
            <mxPoint x="290" y="410" as="sourcePoint" />
            <mxPoint x="450" y="410" as="targetPoint" />
          </mxGeometry>
        </mxCell>
        <mxCell id="DeqCb0h_Cj6cchRE969t-119" value="" style="endArrow=none;html=1;rounded=0;entryX=0.75;entryY=0;entryDx=0;entryDy=0;exitX=0.5;exitY=1;exitDx=0;exitDy=0;" edge="1" parent="1" source="DeqCb0h_Cj6cchRE969t-99" target="DeqCb0h_Cj6cchRE969t-100">
          <mxGeometry relative="1" as="geometry">
            <mxPoint x="350" y="340" as="sourcePoint" />
            <mxPoint x="400" y="450" as="targetPoint" />
          </mxGeometry>
        </mxCell>
        <mxCell id="DeqCb0h_Cj6cchRE969t-120" value="Disabled" style="ellipse;whiteSpace=wrap;html=1;align=center;" vertex="1" parent="1">
          <mxGeometry x="240" y="550" width="90" height="30" as="geometry" />
        </mxCell>
        <mxCell id="DeqCb0h_Cj6cchRE969t-121" value="PhoneNo" style="ellipse;whiteSpace=wrap;html=1;align=center;" vertex="1" parent="1">
          <mxGeometry x="250" y="600" width="90" height="30" as="geometry" />
        </mxCell>
        <mxCell id="DeqCb0h_Cj6cchRE969t-122" value="GuardianPhoneNo" style="ellipse;whiteSpace=wrap;html=1;align=center;" vertex="1" parent="1">
          <mxGeometry x="300" y="630" width="100" height="40" as="geometry" />
        </mxCell>
        <mxCell id="DeqCb0h_Cj6cchRE969t-123" value="DOB" style="ellipse;whiteSpace=wrap;html=1;align=center;" vertex="1" parent="1">
          <mxGeometry x="420" y="640" width="60" height="30" as="geometry" />
        </mxCell>
        <mxCell id="DeqCb0h_Cj6cchRE969t-124" value="Email" style="ellipse;whiteSpace=wrap;html=1;align=center;" vertex="1" parent="1">
          <mxGeometry x="380" y="670" width="70" height="30" as="geometry" />
        </mxCell>
        <mxCell id="DeqCb0h_Cj6cchRE969t-125" value="Gender" style="ellipse;whiteSpace=wrap;html=1;align=center;" vertex="1" parent="1">
          <mxGeometry x="490" y="670" width="80" height="30" as="geometry" />
        </mxCell>
        <mxCell id="DeqCb0h_Cj6cchRE969t-127" value="" style="endArrow=none;html=1;rounded=0;exitX=0.5;exitY=0;exitDx=0;exitDy=0;entryX=0.25;entryY=1;entryDx=0;entryDy=0;" edge="1" parent="1" source="DeqCb0h_Cj6cchRE969t-120" target="DeqCb0h_Cj6cchRE969t-100">
          <mxGeometry relative="1" as="geometry">
            <mxPoint x="275" y="520" as="sourcePoint" />
            <mxPoint x="400" y="480" as="targetPoint" />
            <Array as="points" />
          </mxGeometry>
        </mxCell>
        <mxCell id="DeqCb0h_Cj6cchRE969t-128" value="" style="endArrow=none;html=1;rounded=0;entryX=0.5;entryY=1;entryDx=0;entryDy=0;" edge="1" parent="1" source="DeqCb0h_Cj6cchRE969t-121" target="DeqCb0h_Cj6cchRE969t-100">
          <mxGeometry relative="1" as="geometry">
            <mxPoint x="285" y="530" as="sourcePoint" />
            <mxPoint x="410" y="480" as="targetPoint" />
            <Array as="points" />
          </mxGeometry>
        </mxCell>
        <mxCell id="DeqCb0h_Cj6cchRE969t-129" value="" style="endArrow=none;html=1;rounded=0;entryX=0.5;entryY=1;entryDx=0;entryDy=0;exitX=0.5;exitY=0;exitDx=0;exitDy=0;" edge="1" parent="1" source="DeqCb0h_Cj6cchRE969t-122" target="DeqCb0h_Cj6cchRE969t-100">
          <mxGeometry relative="1" as="geometry">
            <mxPoint x="336" y="600" as="sourcePoint" />
            <mxPoint x="419" y="493" as="targetPoint" />
            <Array as="points" />
          </mxGeometry>
        </mxCell>
        <mxCell id="DeqCb0h_Cj6cchRE969t-130" value="" style="endArrow=none;html=1;rounded=0;entryX=0.5;entryY=1;entryDx=0;entryDy=0;exitX=0.5;exitY=0;exitDx=0;exitDy=0;" edge="1" parent="1" source="DeqCb0h_Cj6cchRE969t-124" target="DeqCb0h_Cj6cchRE969t-100">
          <mxGeometry relative="1" as="geometry">
            <mxPoint x="360" y="640" as="sourcePoint" />
            <mxPoint x="430" y="480" as="targetPoint" />
            <Array as="points" />
          </mxGeometry>
        </mxCell>
        <mxCell id="DeqCb0h_Cj6cchRE969t-131" value="" style="endArrow=none;html=1;rounded=0;entryX=0.75;entryY=1;entryDx=0;entryDy=0;" edge="1" parent="1" source="DeqCb0h_Cj6cchRE969t-123" target="DeqCb0h_Cj6cchRE969t-100">
          <mxGeometry relative="1" as="geometry">
            <mxPoint x="370" y="650" as="sourcePoint" />
            <mxPoint x="450" y="480" as="targetPoint" />
            <Array as="points" />
          </mxGeometry>
        </mxCell>
        <mxCell id="DeqCb0h_Cj6cchRE969t-132" value="" style="endArrow=none;html=1;rounded=0;entryX=0.75;entryY=1;entryDx=0;entryDy=0;exitX=0;exitY=0;exitDx=0;exitDy=0;" edge="1" parent="1" source="DeqCb0h_Cj6cchRE969t-125" target="DeqCb0h_Cj6cchRE969t-100">
          <mxGeometry relative="1" as="geometry">
            <mxPoint x="380" y="660" as="sourcePoint" />
            <mxPoint x="450" y="500" as="targetPoint" />
            <Array as="points" />
          </mxGeometry>
        </mxCell>
        <mxCell id="DeqCb0h_Cj6cchRE969t-136" value="Address" style="ellipse;whiteSpace=wrap;html=1;align=center;" vertex="1" parent="1">
          <mxGeometry x="567.5" y="460" width="75" height="30" as="geometry" />
        </mxCell>
        <mxCell id="DeqCb0h_Cj6cchRE969t-137" value="Password" style="ellipse;whiteSpace=wrap;html=1;align=center;" vertex="1" parent="1">
          <mxGeometry x="512.5" y="430" width="75" height="30" as="geometry" />
        </mxCell>
        <mxCell id="DeqCb0h_Cj6cchRE969t-138" value="" style="endArrow=none;html=1;rounded=0;entryX=1;entryY=0.25;entryDx=0;entryDy=0;exitX=0;exitY=0.5;exitDx=0;exitDy=0;" edge="1" parent="1" source="DeqCb0h_Cj6cchRE969t-137" target="DeqCb0h_Cj6cchRE969t-100">
          <mxGeometry relative="1" as="geometry">
            <mxPoint x="533" y="502" as="sourcePoint" />
            <mxPoint x="480" y="460" as="targetPoint" />
            <Array as="points" />
          </mxGeometry>
        </mxCell>
        <mxCell id="DeqCb0h_Cj6cchRE969t-140" value="" style="endArrow=none;html=1;rounded=0;exitX=0;exitY=0.5;exitDx=0;exitDy=0;" edge="1" parent="1" source="DeqCb0h_Cj6cchRE969t-136">
          <mxGeometry relative="1" as="geometry">
            <mxPoint x="543" y="512" as="sourcePoint" />
            <mxPoint x="470" y="450" as="targetPoint" />
            <Array as="points" />
          </mxGeometry>
        </mxCell>
        <mxCell id="DeqCb0h_Cj6cchRE969t-141" value="MeritRank" style="ellipse;whiteSpace=wrap;html=1;align=center;" vertex="1" parent="1">
          <mxGeometry x="566.5" y="525" width="70" height="30" as="geometry" />
        </mxCell>
        <mxCell id="DeqCb0h_Cj6cchRE969t-142" value="" style="endArrow=none;html=1;rounded=0;entryX=1;entryY=0.75;entryDx=0;entryDy=0;exitX=0;exitY=0.5;exitDx=0;exitDy=0;" edge="1" parent="1" source="DeqCb0h_Cj6cchRE969t-141" target="DeqCb0h_Cj6cchRE969t-100">
          <mxGeometry relative="1" as="geometry">
            <mxPoint x="533" y="502" as="sourcePoint" />
            <mxPoint x="480" y="460" as="targetPoint" />
            <Array as="points" />
          </mxGeometry>
        </mxCell>
        <mxCell id="DeqCb0h_Cj6cchRE969t-144" value="Semester" style="ellipse;whiteSpace=wrap;html=1;align=center;" vertex="1" parent="1">
          <mxGeometry x="545" y="570" width="70" height="30" as="geometry" />
        </mxCell>
        <mxCell id="DeqCb0h_Cj6cchRE969t-146" value="" style="endArrow=none;html=1;rounded=0;exitX=1;exitY=1;exitDx=0;exitDy=0;entryX=0;entryY=0;entryDx=0;entryDy=0;" edge="1" parent="1" source="DeqCb0h_Cj6cchRE969t-100" target="DeqCb0h_Cj6cchRE969t-144">
          <mxGeometry relative="1" as="geometry">
            <mxPoint x="455" y="480" as="sourcePoint" />
            <mxPoint x="553" y="645" as="targetPoint" />
          </mxGeometry>
        </mxCell>
      </root>
    </mxGraphModel>
  </diagram>
</mxfile>
